<svg xmlns="http://www.w3.org/2000/svg" width="64.0" height="64.0" viewBox="0 0 64.0 64.0"><rect x="0" y="0" width="64.0" height="64.0" fill="#0f0d0b" stroke="#3d352f" stroke-width="0.6" /><path d="M0.26,0.27 L0.00,0.24 L0.01,0.00 L0.23,0.01 L0.26,0.27 Z" fill="#585858" stroke="#f6efe6" stroke-width="0.3" data-region-id="1" data-veneer-id="blue" /><text x="1.2" y="6.0" fill="#f6efe6" font-size="5" font-family="monospace">1</text><path d="M1.27,0.20 L1.26,0.01 L1.02,0.00 L1.00,0.23 L1.02,0.26 L1.24,0.24 L1.27,0.20 Z" fill="#585858" stroke="#f6efe6" stroke-width="0.3" data-region-id="6" data-veneer-id="blue" /><text x="2.2" y="6.0" fill="#f6efe6" font-size="5" font-family="monospace">6</text><path d="M2.25,0.24 L2.24,0.00 L2.00,0.01 L2.01,0.23 L2.25,0.24 Z" fill="#585858" stroke="#f6efe6" stroke-width="0.3" data-region-id="7" data-veneer-id="blue" /><text x="3.2" y="6.0" fill="#f6efe6" font-size="5" font-family="monospace">7</text><path d="M3.25,0.18 L3.24,0.00 L3.00,0.01 L3.01,0.19 L3.25,0.18 Z" fill="#797979" stroke="#f6efe6" stroke-width="0.3" data-region-id="3" data-veneer-id="blue" /><text x="4.2" y="6.0" fill="#f6efe6" font-size="5" font-family="monospace">3</text><path d="M4.25,0.21 L4.24,0.00 L4.23,0.03 L4.00,0.05 L4.01,0.22 L4.25,0.21 Z" fill="#7a7a7a" stroke="#f6efe6" stroke-width="0.3" data-region-id="8" data-veneer-id="blue" /><text x="5.2" y="6.0" fill="#f6efe6" font-size="5" font-family="monospace">8</text><path d="M5.25,0.16 L5.24,0.00 L5.00,0.01 L5.01,0.17 L5.25,0.16 Z" fill="#7c7c7c" stroke="#f6efe6" stroke-width="0.3" data-region-id="4" data-veneer-id="blue" /><text x="6.2" y="6.0" fill="#f6efe6" font-size="5" font-family="monospace">4</text><path d="M6.25,0.16 L6.24,0.00 L6.00,0.01 L6.01,0.17 L6.25,0.16 Z" fill="#7c7c7c" stroke="#f6efe6" stroke-width="0.3" data-region-id="9" data-veneer-id="blue" /><text x="7.2" y="6.0" fill="#f6efe6" font-size="5" font-family="monospace">9</text><path d="M7.25,0.15 L7.24,0.00 L7.00,0.01 L7.01,0.16 L7.25,0.15 Z" fill="#7c7c7c" stroke="#f6efe6" stroke-width="0.3" data-region-id="5" data-veneer-id="blue" /><text x="8.2" y="6.0" fill="#f6efe6" font-size="5" font-family="monospace">5</text><path d="M8.25,0.15 L8.24,0.00 L8.00,0.01 L8.01,0.16 L8.25,0.15 Z" fill="#7c7c7c" stroke="#f6efe6" stroke-width="0.3" data-region-id="10" data-veneer-id="blue" /><text x="9.2" y="6.0" fill="#f6efe6" font-size="5" font-family="monospace">10</text></svg>