<svg xmlns="http://www.w3.org/2000/svg" width="14.0" height="9.0" viewBox="0 0 14.0 9.0"><rect x="0" y="0" width="14.0" height="9.0" fill="#0f0d0b" stroke="#3d352f" stroke-width="0.6" /><path d="M0.19,0.23 L0.19,0.01 L0.01,0.00 L0.00,0.23 L0.19,0.23 Z" fill="#a0a0a0" stroke="#f6efe6" stroke-width="0.3" data-region-id="16" data-veneer-id="light" /><text x="1.2" y="6.0" fill="#f6efe6" font-size="5" font-family="monospace">16</text><path d="M0.17,1.24 L0.17,1.01 L0.01,1.00 L0.00,1.24 L0.17,1.24 Z" fill="#a0a0a0" stroke="#f6efe6" stroke-width="0.3" data-region-id="18" data-veneer-id="light" /><text x="1.2" y="7.0" fill="#f6efe6" font-size="5" font-family="monospace">18</text><path d="M0.17,2.23 L0.17,2.01 L0.01,2.00 L0.00,2.26 L0.04,2.23 L0.17,2.23 Z" fill="#a0a0a0" stroke="#f6efe6" stroke-width="0.3" data-region-id="12" data-veneer-id="light" /><text x="1.2" y="8.0" fill="#f6efe6" font-size="5" font-family="monospace">12</text><path d="M0.16,3.24 L0.16,3.01 L0.01,3.00 L0.00,3.24 L0.16,3.24 Z" fill="#a0a0a0" stroke="#f6efe6" stroke-width="0.3" data-region-id="22" data-veneer-id="light" /><text x="1.2" y="9.0" fill="#f6efe6" font-size="5" font-family="monospace">22</text><path d="M0.16,4.23 L0.16,4.01 L0.01,4.00 L0.00,4.23 L0.16,4.23 Z" fill="#a0a0a0" stroke="#f6efe6" stroke-width="0.3" data-region-id="11" data-veneer-id="light" /><text x="1.2" y="10.0" fill="#f6efe6" font-size="5" font-family="monospace">11</text><path d="M0.16,5.23 L0.16,5.01 L0.01,5.00 L0.00,5.23 L0.16,5.23 Z" fill="#a0a0a0" stroke="#f6efe6" stroke-width="0.3" data-region-id="21" data-veneer-id="light" /><text x="1.2" y="11.0" fill="#f6efe6" font-size="5" font-family="monospace">21</text><path d="M0.19,6.18 L0.19,6.01 L0.04,6.00 L0.00,6.16 L0.02,6.19 L0.19,6.18 Z" fill="#bebebe" stroke="#f6efe6" stroke-width="0.3" data-region-id="17" data-veneer-id="light" /><text x="1.2" y="12.0" fill="#f6efe6" font-size="5" font-family="monospace">17</text><path d="M0.19,7.04 L0.16,7.00 L0.04,7.00 L0.00,7.04 L0.00,7.18 L0.15,7.19 L0.17,7.16 L0.19,7.04 Z" fill="#bbbbbb" stroke="#f6efe6" stroke-width="0.3" data-region-id="13" data-veneer-id="light" /><text x="1.2" y="13.0" fill="#f6efe6" font-size="5" font-family="monospace">13</text><path d="M0.17,8.16 L0.16,8.00 L0.00,8.01 L0.01,8.17 L0.17,8.16 Z" fill="#c0c0c0" stroke="#f6efe6" stroke-width="0.3" data-region-id="14" data-veneer-id="light" /><text x="1.2" y="14.0" fill="#f6efe6" font-size="5" font-family="monospace">14</text><path d="M1.17,0.16 L1.16,0.00 L1.00,0.01 L1.01,0.17 L1.17,0.16 Z" fill="#c0c0c0" stroke="#f6efe6" stroke-width="0.3" data-region-id="15" data-veneer-id="light" /><text x="2.2" y="6.0" fill="#f6efe6" font-size="5" font-family="monospace">15</text><path d="M1.17,1.16 L1.16,1.00 L1.00,1.01 L1.01,1.17 L1.17,1.16 Z" fill="#c0c0c0" stroke="#f6efe6" stroke-width="0.3" data-region-id="19" data-veneer-id="light" /><text x="2.2" y="7.0" fill="#f6efe6" font-size="5" font-family="monospace">19</text><path d="M1.16,2.18 L1.16,2.01 L1.01,2.00 L1.00,2.18 L1.16,2.18 Z" fill="#bdbdbd" stroke="#f6efe6" stroke-width="0.3" data-region-id="23" data-veneer-id="light" /><text x="2.2" y="8.0" fill="#f6efe6" font-size="5" font-family="monospace">23</text><path d="M1.17,3.15 L1.16,3.00 L1.00,3.01 L1.01,3.16 L1.17,3.15 Z" fill="#c0c0c0" stroke="#f6efe6" stroke-width="0.3" data-region-id="20" data-veneer-id="light" /><text x="2.2" y="9.0" fill="#f6efe6" font-size="5" font-family="monospace">20</text><path d="M1.16,4.16 L1.16,4.01 L1.01,4.00 L1.00,4.16 L1.16,4.16 Z" fill="#c0c0c0" stroke="#f6efe6" stroke-width="0.3" data-region-id="24" data-veneer-id="light" /><text x="2.2" y="10.0" fill="#f6efe6" font-size="5" font-family="monospace">24</text><path d="M1.16,5.15 L1.15,5.00 L1.00,5.01 L1.01,5.16 L1.16,5.15 Z" fill="#c0c0c0" stroke="#f6efe6" stroke-width="0.3" data-region-id="25" data-veneer-id="light" /><text x="2.2" y="11.0" fill="#f6efe6" font-size="5" font-family="monospace">25</text></svg>